<svg width="300" height="180" viewBox="0 0 300 180" fill="none" xmlns="http://www.w3.org/2000/svg" role="img" aria-label="Olive branch">
  <path d="M22 146C85 114 136 75 194 28" stroke="#6F7452" stroke-width="3" stroke-linecap="round"/>
  <g fill="#8D9470" stroke="#4F5A32" stroke-width="1.2">
    <ellipse cx="70" cy="126" rx="11" ry="26" transform="rotate(-70 70 126)"/>
    <ellipse cx="94" cy="111" rx="10" ry="24" transform="rotate(115 94 111)"/>
    <ellipse cx="124" cy="91" rx="10" ry="25" transform="rotate(-62 124 91)"/>
    <ellipse cx="146" cy="76" rx="9" ry="22" transform="rotate(118 146 76)"/>
    <ellipse cx="176" cy="53" rx="9" ry="22" transform="rotate(-54 176 53)"/>
    <ellipse cx="198" cy="32" rx="8" ry="20" transform="rotate(120 198 32)"/>
  </g>
  <g fill="#7C8052">
    <ellipse cx="107" cy="113" rx="9" ry="11" transform="rotate(-20 107 113)"/>
    <ellipse cx="160" cy="69" rx="8" ry="10" transform="rotate(-20 160 69)"/>
    <ellipse cx="206" cy="32" rx="8" ry="10" transform="rotate(-20 206 32)"/>
  </g>
</svg>
