<svg xmlns="http://www.w3.org/2000/svg" width="620" height="140" viewBox="0 0 620 140" fill="none" role="img" aria-label="Issie and Ben logo">
  <g transform="translate(8 16) scale(.38)">
    <path d="M20 120 C96 91, 159 61, 250 20" stroke="#DCE2D1" stroke-width="7" stroke-linecap="round"/>
    <path d="M73 93 C49 62, 18 56, 0 76 C20 107, 50 113, 73 93Z" fill="#DCE2D1" stroke="#DCE2D1" stroke-width="4"/>
    <path d="M122 72 C99 40, 67 37, 48 58 C70 89, 100 93, 122 72Z" fill="#DCE2D1" stroke="#DCE2D1" stroke-width="4"/>
    <path d="M174 49 C150 21, 119 21, 101 42 C124 70, 154 73, 174 49Z" fill="#DCE2D1" stroke="#DCE2D1" stroke-width="4"/>
    <ellipse cx="107" cy="96" rx="12" ry="15" transform="rotate(-22 107 96)" fill="#B9BE9A"/>
  </g>
  <circle cx="108" cy="62" r="8" fill="#C99A24"/>
  <text x="134" y="82" font-family="Georgia, 'Times New Roman', serif" font-size="52" fill="#FFFDF7" letter-spacing="-1.5">Issie &amp; Ben</text>
</svg>