<svg xmlns="http://www.w3.org/2000/svg" width="520" height="220" viewBox="0 0 520 220" fill="none" role="img" aria-label="Olive and sunflower mark">
  <g transform="translate(16 32)">
    <path d="M20 120 C96 91, 159 61, 250 20" stroke="#4F5A32" stroke-width="7" stroke-linecap="round"/>
    <path d="M73 93 C49 62, 18 56, 0 76 C20 107, 50 113, 73 93Z" fill="#DCE2D1" stroke="#4F5A32" stroke-width="4"/>
    <path d="M122 72 C99 40, 67 37, 48 58 C70 89, 100 93, 122 72Z" fill="#DCE2D1" stroke="#4F5A32" stroke-width="4"/>
    <path d="M174 49 C150 21, 119 21, 101 42 C124 70, 154 73, 174 49Z" fill="#DCE2D1" stroke="#4F5A32" stroke-width="4"/>
    <ellipse cx="107" cy="96" rx="12" ry="15" transform="rotate(-22 107 96)" fill="#7D8B55"/>
    <ellipse cx="162" cy="66" rx="12" ry="15" transform="rotate(-22 162 66)" fill="#7D8B55"/>
  </g>
  <g transform="translate(300 70) scale(.62)">
    <g fill="#C99A24">
      <ellipse cx="0" cy="-76" rx="17" ry="43"/>
      <ellipse cx="0" cy="76" rx="17" ry="43"/>
      <ellipse cx="76" cy="0" rx="43" ry="17"/>
      <ellipse cx="-76" cy="0" rx="43" ry="17"/>
      <ellipse cx="54" cy="-54" rx="15" ry="40" transform="rotate(45 54 -54)"/>
      <ellipse cx="-54" cy="54" rx="15" ry="40" transform="rotate(45 -54 54)"/>
      <ellipse cx="54" cy="54" rx="15" ry="40" transform="rotate(-45 54 54)"/>
      <ellipse cx="-54" cy="-54" rx="15" ry="40" transform="rotate(-45 -54 -54)"/>
    </g>
    <circle cx="0" cy="0" r="42" fill="#6E4E1E"/>
    <circle cx="0" cy="0" r="24" fill="#4B3519" opacity="0.72"/>
  </g>
</svg>